<svg preserveAspectRatio="none" overflow="visible" style="display: block;" width="38" height="196" viewBox="0 0 38 196" fill="none" xmlns="http://www.w3.org/2000/svg">
<g id="Frame 1912056902">
<path id="Line 26" d="M38 98H0" stroke="#E3EEF9"/>
<path id="Line 28" d="M38 166H27.8C23.3196 166 21.0794 166 19.3681 165.128C17.8628 164.361 16.6389 163.137 15.8719 161.632C15 159.921 15 157.68 15 153.2V107.6C15 104.24 15 102.56 14.346 101.276C13.7708 100.147 12.8529 99.2292 11.7239 98.654C10.4405 98 8.76031 98 5.4 98H0" stroke="#E3EEF9"/>
<path id="Line 27" d="M38 30H27.8C23.3196 30 21.0794 30 19.3681 30.8719C17.8628 31.6389 16.6389 32.8628 15.8719 34.3681C15 36.0794 15 38.3196 15 42.8V88.4C15 91.7603 15 93.4405 14.346 94.7239C13.7708 95.8529 12.8529 96.7708 11.7239 97.346C10.4405 98 8.76031 98 5.4 98H0" stroke="#E3EEF9"/>
</g>
</svg>
